<mxfile host="Electron" agent="Mozilla/5.0 (Windows NT 10.0; Win64; x64) AppleWebKit/537.36 (KHTML, like Gecko) draw.io/26.2.15 Chrome/134.0.6998.205 Electron/35.2.1 Safari/537.36" version="26.2.15">
  <diagram name="Data Architecture" id="Rd5iodGt0yKCNS-O_p0x">
    <mxGraphModel dx="1042" dy="626" grid="1" gridSize="10" guides="1" tooltips="1" connect="1" arrows="1" fold="1" page="1" pageScale="1" pageWidth="850" pageHeight="1100" math="0" shadow="0">
      <root>
        <mxCell id="0" />
        <mxCell id="1" parent="0" />
        <mxCell id="pYvkNKaQyiTFnAVLPeDg-2" value="" style="rounded=0;whiteSpace=wrap;html=1;dashed=1;dashPattern=1 2;" vertex="1" parent="1">
          <mxGeometry x="30" y="170" width="180" height="400" as="geometry" />
        </mxCell>
        <mxCell id="pYvkNKaQyiTFnAVLPeDg-3" value="" style="rounded=0;whiteSpace=wrap;html=1;dashed=1;dashPattern=1 2;" vertex="1" parent="1">
          <mxGeometry x="240" y="170" width="570" height="440" as="geometry" />
        </mxCell>
        <mxCell id="pYvkNKaQyiTFnAVLPeDg-4" value="" style="rounded=0;whiteSpace=wrap;html=1;dashed=1;dashPattern=1 2;" vertex="1" parent="1">
          <mxGeometry x="850" y="170" width="140" height="450" as="geometry" />
        </mxCell>
        <mxCell id="pYvkNKaQyiTFnAVLPeDg-5" value="Sources" style="text;html=1;align=center;verticalAlign=middle;whiteSpace=wrap;rounded=0;labelBackgroundColor=default;" vertex="1" parent="1">
          <mxGeometry x="90" y="150" width="60" height="30" as="geometry" />
        </mxCell>
        <mxCell id="pYvkNKaQyiTFnAVLPeDg-6" value="Data Warehouse" style="text;html=1;align=center;verticalAlign=middle;whiteSpace=wrap;rounded=0;labelBackgroundColor=default;" vertex="1" parent="1">
          <mxGeometry x="460" y="150" width="120" height="30" as="geometry" />
        </mxCell>
        <mxCell id="pYvkNKaQyiTFnAVLPeDg-7" value="Consume" style="text;html=1;align=center;verticalAlign=middle;whiteSpace=wrap;rounded=0;labelBackgroundColor=default;" vertex="1" parent="1">
          <mxGeometry x="890" y="150" width="60" height="30" as="geometry" />
        </mxCell>
        <mxCell id="pYvkNKaQyiTFnAVLPeDg-8" value="Bronze Layer" style="rounded=0;whiteSpace=wrap;html=1;fillColor=#ffe6cc;strokeColor=#d79b00;" vertex="1" parent="1">
          <mxGeometry x="260" y="190" width="120" height="40" as="geometry" />
        </mxCell>
        <mxCell id="pYvkNKaQyiTFnAVLPeDg-9" value="" style="rounded=0;whiteSpace=wrap;html=1;fillColor=none;strokeColor=#d79b00;" vertex="1" parent="1">
          <mxGeometry x="260" y="240" width="120" height="350" as="geometry" />
        </mxCell>
        <mxCell id="pYvkNKaQyiTFnAVLPeDg-10" value="Silver Layer" style="rounded=0;whiteSpace=wrap;html=1;fillColor=#f5f5f5;strokeColor=#666666;fontColor=#333333;" vertex="1" parent="1">
          <mxGeometry x="460" y="190" width="120" height="40" as="geometry" />
        </mxCell>
        <mxCell id="pYvkNKaQyiTFnAVLPeDg-11" value="" style="rounded=0;whiteSpace=wrap;html=1;fillColor=none;strokeColor=#666666;fontColor=#333333;" vertex="1" parent="1">
          <mxGeometry x="460" y="240" width="120" height="350" as="geometry" />
        </mxCell>
        <mxCell id="pYvkNKaQyiTFnAVLPeDg-12" value="Gold Layer" style="rounded=0;whiteSpace=wrap;html=1;fillColor=#fff2cc;strokeColor=#d6b656;" vertex="1" parent="1">
          <mxGeometry x="660" y="190" width="120" height="40" as="geometry" />
        </mxCell>
        <mxCell id="pYvkNKaQyiTFnAVLPeDg-13" value="" style="rounded=0;whiteSpace=wrap;html=1;fillColor=none;strokeColor=#d6b656;" vertex="1" parent="1">
          <mxGeometry x="660" y="240" width="120" height="350" as="geometry" />
        </mxCell>
        <mxCell id="pYvkNKaQyiTFnAVLPeDg-15" value="" style="image;aspect=fixed;html=1;points=[];align=center;fontSize=12;image=img/lib/azure2/general/Folder_Blank.svg;" vertex="1" parent="1">
          <mxGeometry x="96" y="260" width="62" height="50.33" as="geometry" />
        </mxCell>
        <mxCell id="pYvkNKaQyiTFnAVLPeDg-16" value="" style="verticalLabelPosition=bottom;html=1;verticalAlign=top;align=center;strokeColor=none;fillColor=#00BEF2;shape=mxgraph.azure.file_2;pointerEvents=1;" vertex="1" parent="1">
          <mxGeometry x="130" y="280" width="39" height="39" as="geometry" />
        </mxCell>
        <mxCell id="pYvkNKaQyiTFnAVLPeDg-18" value="CRM" style="text;html=1;align=center;verticalAlign=middle;whiteSpace=wrap;rounded=0;" vertex="1" parent="1">
          <mxGeometry x="96" y="319" width="60" height="30" as="geometry" />
        </mxCell>
        <mxCell id="pYvkNKaQyiTFnAVLPeDg-19" value="" style="image;aspect=fixed;html=1;points=[];align=center;fontSize=12;image=img/lib/azure2/general/Folder_Blank.svg;" vertex="1" parent="1">
          <mxGeometry x="96" y="370" width="62" height="50.33" as="geometry" />
        </mxCell>
        <mxCell id="pYvkNKaQyiTFnAVLPeDg-20" value="" style="verticalLabelPosition=bottom;html=1;verticalAlign=top;align=center;strokeColor=none;fillColor=#00BEF2;shape=mxgraph.azure.file_2;pointerEvents=1;" vertex="1" parent="1">
          <mxGeometry x="130" y="390" width="39" height="39" as="geometry" />
        </mxCell>
        <mxCell id="pYvkNKaQyiTFnAVLPeDg-21" value="ERP" style="text;html=1;align=center;verticalAlign=middle;whiteSpace=wrap;rounded=0;" vertex="1" parent="1">
          <mxGeometry x="96" y="429" width="60" height="30" as="geometry" />
        </mxCell>
        <mxCell id="pYvkNKaQyiTFnAVLPeDg-22" value="" style="endArrow=none;html=1;rounded=0;exitX=0;exitY=1;exitDx=0;exitDy=0;fillColor=#f5f5f5;strokeColor=#666666;" edge="1" parent="1" source="pYvkNKaQyiTFnAVLPeDg-21">
          <mxGeometry width="50" height="50" relative="1" as="geometry">
            <mxPoint x="105" y="509" as="sourcePoint" />
            <mxPoint x="155" y="459" as="targetPoint" />
          </mxGeometry>
        </mxCell>
        <mxCell id="pYvkNKaQyiTFnAVLPeDg-23" value="Object Type:CSV FIles&lt;div&gt;&lt;br&gt;&lt;div&gt;Interface: Files In Folder&lt;/div&gt;&lt;/div&gt;" style="text;html=1;align=center;verticalAlign=middle;whiteSpace=wrap;rounded=0;" vertex="1" parent="1">
          <mxGeometry x="40" y="470" width="160" height="40" as="geometry" />
        </mxCell>
        <mxCell id="pYvkNKaQyiTFnAVLPeDg-24" value="" style="html=1;verticalLabelPosition=bottom;align=center;labelBackgroundColor=#ffffff;verticalAlign=top;strokeWidth=2;strokeColor=#d79b00;shadow=0;dashed=0;shape=mxgraph.ios7.icons.data;fillColor=#ffe6cc;" vertex="1" parent="1">
          <mxGeometry x="308" y="319.45" width="24" height="29.099999999999998" as="geometry" />
        </mxCell>
        <mxCell id="pYvkNKaQyiTFnAVLPeDg-25" value="" style="html=1;verticalLabelPosition=bottom;align=center;labelBackgroundColor=#ffffff;verticalAlign=top;strokeWidth=2;strokeColor=#666666;shadow=0;dashed=0;shape=mxgraph.ios7.icons.data;fillColor=#f5f5f5;fontColor=#333333;" vertex="1" parent="1">
          <mxGeometry x="508" y="311.9" width="24" height="29.099999999999998" as="geometry" />
        </mxCell>
        <mxCell id="pYvkNKaQyiTFnAVLPeDg-26" value="" style="html=1;verticalLabelPosition=bottom;align=center;labelBackgroundColor=#ffffff;verticalAlign=top;strokeWidth=2;strokeColor=#d6b656;shadow=0;dashed=0;shape=mxgraph.ios7.icons.data;fillColor=#fff2cc;" vertex="1" parent="1">
          <mxGeometry x="708" y="320.9" width="24" height="29.099999999999998" as="geometry" />
        </mxCell>
        <mxCell id="pYvkNKaQyiTFnAVLPeDg-27" value="" style="shape=singleArrow;whiteSpace=wrap;html=1;fillColor=#b1ddf0;strokeColor=#10739e;" vertex="1" parent="1">
          <mxGeometry x="200" y="350" width="60" height="30" as="geometry" />
        </mxCell>
        <mxCell id="pYvkNKaQyiTFnAVLPeDg-28" value="" style="shape=singleArrow;whiteSpace=wrap;html=1;fillColor=#b1ddf0;strokeColor=#10739e;" vertex="1" parent="1">
          <mxGeometry x="380" y="340" width="80" height="30" as="geometry" />
        </mxCell>
        <mxCell id="pYvkNKaQyiTFnAVLPeDg-29" value="" style="shape=singleArrow;whiteSpace=wrap;html=1;fillColor=#b1ddf0;strokeColor=#10739e;" vertex="1" parent="1">
          <mxGeometry x="580" y="341" width="80" height="30" as="geometry" />
        </mxCell>
        <mxCell id="pYvkNKaQyiTFnAVLPeDg-30" value="" style="shape=singleArrow;whiteSpace=wrap;html=1;fillColor=#b1ddf0;strokeColor=#10739e;" vertex="1" parent="1">
          <mxGeometry x="780" y="341" width="70" height="30" as="geometry" />
        </mxCell>
        <mxCell id="pYvkNKaQyiTFnAVLPeDg-31" value="Raw Data" style="text;html=1;align=center;verticalAlign=middle;whiteSpace=wrap;rounded=0;" vertex="1" parent="1">
          <mxGeometry x="290" y="360" width="60" height="30" as="geometry" />
        </mxCell>
        <mxCell id="pYvkNKaQyiTFnAVLPeDg-32" value="Cleaned, Standardized data" style="text;html=1;align=center;verticalAlign=middle;whiteSpace=wrap;rounded=0;" vertex="1" parent="1">
          <mxGeometry x="490" y="360" width="60" height="30" as="geometry" />
        </mxCell>
        <mxCell id="pYvkNKaQyiTFnAVLPeDg-33" value="Business-Ready Data" style="text;html=1;align=center;verticalAlign=middle;whiteSpace=wrap;rounded=0;" vertex="1" parent="1">
          <mxGeometry x="690" y="360" width="60" height="30" as="geometry" />
        </mxCell>
        <mxCell id="pYvkNKaQyiTFnAVLPeDg-34" value="" style="endArrow=none;html=1;rounded=0;exitX=0;exitY=1;exitDx=0;exitDy=0;fillColor=#f5f5f5;strokeColor=#666666;" edge="1" parent="1">
          <mxGeometry width="50" height="50" relative="1" as="geometry">
            <mxPoint x="290" y="394.65999999999997" as="sourcePoint" />
            <mxPoint x="349" y="394.65999999999997" as="targetPoint" />
          </mxGeometry>
        </mxCell>
        <mxCell id="pYvkNKaQyiTFnAVLPeDg-35" value="" style="endArrow=none;html=1;rounded=0;exitX=0;exitY=1;exitDx=0;exitDy=0;fillColor=#f5f5f5;strokeColor=#666666;" edge="1" parent="1">
          <mxGeometry width="50" height="50" relative="1" as="geometry">
            <mxPoint x="490.5" y="394.65999999999997" as="sourcePoint" />
            <mxPoint x="549.5" y="394.65999999999997" as="targetPoint" />
          </mxGeometry>
        </mxCell>
        <mxCell id="pYvkNKaQyiTFnAVLPeDg-36" value="" style="endArrow=none;html=1;rounded=0;exitX=0;exitY=1;exitDx=0;exitDy=0;fillColor=#f5f5f5;strokeColor=#666666;" edge="1" parent="1">
          <mxGeometry width="50" height="50" relative="1" as="geometry">
            <mxPoint x="690" y="400" as="sourcePoint" />
            <mxPoint x="749" y="400" as="targetPoint" />
          </mxGeometry>
        </mxCell>
        <mxCell id="pYvkNKaQyiTFnAVLPeDg-37" value="Object Type: Table&lt;div&gt;&lt;div&gt;Load:&lt;span style=&quot;white-space: pre;&quot;&gt;&#x9;&lt;/span&gt;&lt;span style=&quot;white-space: pre;&quot;&gt;&#x9;&lt;/span&gt;&amp;nbsp;&lt;/div&gt;&lt;div&gt;&lt;ul&gt;&lt;li&gt;&lt;span style=&quot;background-color: transparent; color: light-dark(rgb(0, 0, 0), rgb(255, 255, 255));&quot;&gt;Batch Processing&lt;/span&gt;&lt;/li&gt;&lt;li&gt;&lt;span style=&quot;background-color: transparent; color: light-dark(rgb(0, 0, 0), rgb(255, 255, 255));&quot;&gt;Full Load&lt;/span&gt;&lt;/li&gt;&lt;li&gt;Truncate &amp;amp; Insert&lt;/li&gt;&lt;/ul&gt;&lt;div&gt;No Transformation&lt;/div&gt;&lt;/div&gt;&lt;/div&gt;&lt;div&gt;Data Model: None(as-is)&lt;/div&gt;" style="text;html=1;align=center;verticalAlign=middle;whiteSpace=wrap;rounded=0;" vertex="1" parent="1">
          <mxGeometry x="260" y="480" width="120" height="40" as="geometry" />
        </mxCell>
        <mxCell id="pYvkNKaQyiTFnAVLPeDg-42" value="Object Type: Table&lt;div&gt;&lt;div&gt;Load:&lt;span style=&quot;white-space: pre;&quot;&gt;&#x9;&lt;/span&gt;&lt;span style=&quot;white-space: pre;&quot;&gt;&#x9;&lt;/span&gt;&amp;nbsp;&lt;/div&gt;&lt;div&gt;&lt;ul&gt;&lt;li&gt;&lt;span style=&quot;background-color: transparent; color: light-dark(rgb(0, 0, 0), rgb(255, 255, 255));&quot;&gt;Batch Processing&lt;/span&gt;&lt;/li&gt;&lt;li&gt;&lt;span style=&quot;background-color: transparent; color: light-dark(rgb(0, 0, 0), rgb(255, 255, 255));&quot;&gt;Full Load&lt;/span&gt;&lt;/li&gt;&lt;li&gt;Truncate &amp;amp; Insert&lt;/li&gt;&lt;/ul&gt;&lt;div&gt;Transformation&lt;/div&gt;&lt;/div&gt;&lt;/div&gt;&lt;div&gt;&lt;br&gt;&lt;/div&gt;&lt;div&gt;Data Model: None(as-is)&lt;/div&gt;" style="text;html=1;align=center;verticalAlign=middle;whiteSpace=wrap;rounded=0;" vertex="1" parent="1">
          <mxGeometry x="460" y="480" width="120" height="40" as="geometry" />
        </mxCell>
        <mxCell id="pYvkNKaQyiTFnAVLPeDg-43" value="Object Type: Table&lt;div&gt;&lt;div&gt;Load:&lt;span style=&quot;white-space: pre;&quot;&gt;&#x9;&lt;/span&gt;&lt;span style=&quot;white-space: pre;&quot;&gt;&#x9;&lt;/span&gt;&amp;nbsp;&lt;/div&gt;&lt;div&gt;&lt;ul&gt;&lt;li&gt;&lt;span style=&quot;background-color: transparent; color: light-dark(rgb(0, 0, 0), rgb(255, 255, 255));&quot;&gt;Batch Processing&lt;/span&gt;&lt;/li&gt;&lt;li&gt;&lt;span style=&quot;background-color: transparent; color: light-dark(rgb(0, 0, 0), rgb(255, 255, 255));&quot;&gt;Full Load&lt;/span&gt;&lt;/li&gt;&lt;li&gt;Truncate &amp;amp; Insert&lt;/li&gt;&lt;/ul&gt;&lt;div&gt;Transformation&lt;/div&gt;&lt;/div&gt;&lt;/div&gt;&lt;div&gt;Data Model:&lt;/div&gt;&lt;div&gt;&lt;ul style=&quot;direction:ltr;unicode-bidi:embed;margin-top:0in;&lt;br/&gt; margin-bottom:0in&quot; type=&quot;disc&quot;&gt; &lt;li style=&quot;margin-top:0;margin-bottom:0;vertical-align:middle&quot;&gt;&lt;span style=&quot;font-family:Calibri;font-size:11.0pt&quot;&gt;Star Scheme etc&lt;/span&gt;&lt;/li&gt;&lt;/ul&gt;&lt;/div&gt;" style="text;html=1;align=center;verticalAlign=middle;whiteSpace=wrap;rounded=0;" vertex="1" parent="1">
          <mxGeometry x="660" y="490" width="120" height="40" as="geometry" />
        </mxCell>
        <mxCell id="pYvkNKaQyiTFnAVLPeDg-44" value="" style="image;aspect=fixed;html=1;points=[];align=center;fontSize=12;image=img/lib/azure2/analytics/Power_BI_Embedded.svg;" vertex="1" parent="1">
          <mxGeometry x="890" y="230" width="51" height="68" as="geometry" />
        </mxCell>
        <mxCell id="pYvkNKaQyiTFnAVLPeDg-45" value="BI &amp;amp; Reporting" style="text;html=1;align=center;verticalAlign=middle;whiteSpace=wrap;rounded=0;" vertex="1" parent="1">
          <mxGeometry x="875" y="300" width="90" height="30" as="geometry" />
        </mxCell>
        <mxCell id="pYvkNKaQyiTFnAVLPeDg-46" value="" style="sketch=0;points=[[0,0,0],[0.25,0,0],[0.5,0,0],[0.75,0,0],[1,0,0],[0,1,0],[0.25,1,0],[0.5,1,0],[0.75,1,0],[1,1,0],[0,0.25,0],[0,0.5,0],[0,0.75,0],[1,0.25,0],[1,0.5,0],[1,0.75,0]];outlineConnect=0;fontColor=#232F3E;fillColor=#8C4FFF;strokeColor=#ffffff;dashed=0;verticalLabelPosition=bottom;verticalAlign=top;align=center;html=1;fontSize=12;fontStyle=0;aspect=fixed;shape=mxgraph.aws4.resourceIcon;resIcon=mxgraph.aws4.sql_workbench;" vertex="1" parent="1">
          <mxGeometry x="890" y="360" width="78" height="78" as="geometry" />
        </mxCell>
        <mxCell id="pYvkNKaQyiTFnAVLPeDg-47" value="Ad-hoc sql quering" style="text;html=1;align=center;verticalAlign=middle;whiteSpace=wrap;rounded=0;" vertex="1" parent="1">
          <mxGeometry x="884" y="438" width="90" height="30" as="geometry" />
        </mxCell>
        <mxCell id="pYvkNKaQyiTFnAVLPeDg-48" value="" style="points=[];aspect=fixed;html=1;align=center;shadow=0;dashed=0;fillColor=#FF6A00;strokeColor=none;shape=mxgraph.alibaba_cloud.machine_learning;" vertex="1" parent="1">
          <mxGeometry x="890" y="500" width="49.8" height="50.099999999999994" as="geometry" />
        </mxCell>
        <mxCell id="pYvkNKaQyiTFnAVLPeDg-49" value="Machine Learning" style="text;html=1;align=center;verticalAlign=middle;whiteSpace=wrap;rounded=0;" vertex="1" parent="1">
          <mxGeometry x="875" y="550.1" width="90" height="30" as="geometry" />
        </mxCell>
      </root>
    </mxGraphModel>
  </diagram>
</mxfile>
